<svg version="1.2" xmlns="http://www.w3.org/2000/svg" viewBox="0 0 149 149" width="149" height="149"><style>.a{fill:#181818;stroke:#000;paint-order:stroke fill markers;stroke-linecap:round;stroke-width:4.5}.b{fill:#ea580c}.c{fill:#fff}</style><path class="a" d="m74 6.7q27.9-0.2 47.8 19.4 19.9 19.7 20 47.6 0.2 28-19.4 47.8-19.7 19.9-47.6 20.1-28 0.2-47.8-19.5-19.9-19.6-20.1-47.6-0.2-27.9 19.5-47.8 19.6-19.9 47.6-20z"/><path class="b" d="m36.1 41.5v8.9h-9.5l-0.1 47.1h9.5v9h-14q-0.8 0-1.7-0.4-0.8-0.3-1.4-1-0.6-0.6-1-1.4-0.4-0.8-0.4-1.7v-56.1q0-0.9 0.4-1.7 0.4-0.8 1-1.4 0.6-0.6 1.5-1 0.8-0.3 1.7-0.3zm97 4.4v56.1q0 0.9-0.4 1.7-0.3 0.8-0.9 1.4-0.7 0.7-1.5 1-0.8 0.4-1.7 0.4h-13.9v-9h9.4l-0.1-47.1h-9.5v-8.9h14q0.9 0 1.7 0.3 0.9 0.4 1.5 1 0.6 0.6 1 1.4 0.4 0.8 0.4 1.7z"/><path fill-rule="evenodd" class="c" d="m87.6 70.5v6.9q0 2.6-0.6 4.9-0.7 2.3-1.9 4.2-1.2 2-2.8 3.6-1.7 1.5-3.6 2.6-2 1.1-4.2 1.7-2.2 0.6-4.4 0.6h-13.8q-2.3 0-4.5-0.6-2.2-0.6-4.1-1.7-2-1.1-3.6-2.6-1.7-1.6-2.9-3.6-1.1-1.9-1.8-4.2-0.7-2.3-0.7-4.9v-6.9q0-3.8 1.5-7.1 1.4-3.2 3.9-5.5 2.4-2.3 5.6-3.6 3.2-1.3 6.6-1.3h13.8q2.2 0 4.4 0.5 2.2 0.6 4.2 1.7 1.9 1.1 3.6 2.7 1.6 1.5 2.8 3.5 1.2 2 1.9 4.3 0.6 2.3 0.6 4.8zm-7.6 6.9v-6.9q0-2.2-0.9-4.1-0.8-1.8-2.1-3.1-1.4-1.3-3.2-2-1.8-0.8-3.7-0.7h-13.8q-1.9-0.1-3.7 0.6-1.8 0.7-3.2 2-1.4 1.3-2.2 3.2-0.8 1.9-0.8 4.1v6.9q0 2.3 0.8 4.1 0.8 1.9 2.2 3.2 1.4 1.3 3.2 2 1.8 0.7 3.7 0.7h13.8q2.2 0 4.1-0.8 1.8-0.7 3.1-2.1 1.3-1.3 2-3.1 0.7-1.8 0.7-4zm-3.3-12.4q0.4 0.6 0.5 1.4 0.2 0.7 0 1.4-0.1 0.7-0.5 1.4-0.5 0.6-1.1 1l-20.6 13.8q-0.5 0.4-1 0.5-0.5 0.2-1.1 0.2-0.9 0-1.8-0.5-0.8-0.4-1.4-1.2-0.4-0.7-0.6-1.4-0.1-0.8 0-1.5 0.2-0.7 0.6-1.3 0.4-0.7 1.1-1.1l20.6-13.8q0.6-0.4 1.4-0.5 0.7-0.2 1.4 0 0.8 0.1 1.4 0.5 0.6 0.4 1.1 1.1zm30.3-12v42h-7.6v-34.4h-6.9v-7.6z"/></svg>