<?xml version="1.0" encoding="iso-8859-1"?>
<!-- Generator: Adobe Illustrator 16.0.0, SVG Export Plug-In . SVG Version: 6.00 Build 0)  -->
<!DOCTYPE svg PUBLIC "-//W3C//DTD SVG 1.1//EN" "http://www.w3.org/Graphics/SVG/1.1/DTD/svg11.dtd">
<svg version="1.1" id="Capa_1" xmlns="http://www.w3.org/2000/svg" xmlns:xlink="http://www.w3.org/1999/xlink" x="0px" y="0px"
	 width="322.63px" height="322.63px" viewBox="0 0 322.63 322.63" style="enable-background:new 0 0 322.63 322.63;"
	 xml:space="preserve">
<g>
	<g>
		<path d="M221.736,107.451c5.563,0,10.079,4.511,10.079,10.079c0,5.566-4.516,10.079-10.079,10.079
			c-5.565,0-10.08-4.512-10.08-10.079C211.656,111.962,216.171,107.451,221.736,107.451z"/>
		<path d="M21.63,153.84c2.145,1.157,4.812,0.732,6.478-1.048l48.041-51.114l43.197,57.387c1.01,1.345,2.596,2.134,4.278,2.14
			c0.005,0,0.005,0,0.01,0c1.683,0,3.263-0.785,4.278-2.124l21.394-28.149l48.103,59.197c1.013,1.249,2.552,1.986,4.168,1.986
			h106.164c1.639,0,3.192-0.758,4.215-2.038c1.014-1.286,1.397-2.971,1.023-4.567L282.744,56.497
			c-0.572-2.431-2.74-4.144-5.238-4.144h-90.711V28.836c0-2.975-2.409-5.376-5.375-5.376h-40.315c-2.969,0-5.375,2.401-5.375,5.376
			v23.518H46.363c-2.478,0-4.641,1.692-5.225,4.112l-22.174,91.382C18.389,150.217,19.486,152.68,21.63,153.84z M186.46,112.154
			h15.244c0.473-1.77,1.176-3.436,2.072-4.985l-10.777-10.787c-2.088-2.103-2.088-5.504,0-7.601c2.106-2.101,5.514-2.101,7.612,0
			l10.771,10.784c1.545-0.9,3.213-1.604,4.983-2.076V82.25c0-2.974,2.408-5.375,5.373-5.375c2.968,0,5.376,2.402,5.376,5.375v15.239
			c1.771,0.478,3.438,1.176,4.993,2.076l10.782-10.779c2.1-2.101,5.501-2.101,7.602,0c2.099,2.103,2.099,5.501,0,7.601
			l-10.788,10.776c0.896,1.554,1.601,3.221,2.073,4.99h15.244c2.966,0,5.375,2.402,5.375,5.375c0,2.973-2.409,5.375-5.375,5.375
			h-15.244c-0.473,1.769-1.177,3.436-2.073,4.989l10.788,10.783c2.099,2.102,2.099,5.499,0,7.601
			c-1.051,1.047-2.426,1.575-3.802,1.575c-1.379,0-2.755-0.527-3.8-1.575l-10.782-10.785c-1.555,0.901-3.218,1.599-4.988,2.076
			v15.24c0,2.974-2.402,5.375-5.373,5.375c-2.968,0-5.376-2.401-5.376-5.375v-15.24c-1.771-0.473-3.433-1.175-4.982-2.076
			l-10.788,10.785c-1.049,1.047-2.426,1.575-3.8,1.575c-1.376,0-2.75-0.527-3.802-1.575c-2.099-2.103-2.099-5.499,0-7.601
			l10.783-10.783c-0.896-1.548-1.605-3.22-2.078-4.989h-15.233c-2.972,0-5.376-2.402-5.376-5.375
			C181.095,114.556,183.489,112.154,186.46,112.154z M146.479,34.211h29.564v18.142h-29.564V34.211z"/>
		<path d="M321.653,290.701l-23.087-51.554h18.581c2.968,0,5.376-2.404,5.376-5.376v-18.812c0-2.973-2.408-5.375-5.376-5.375H5.375
			c-2.968,0-5.375,2.402-5.375,5.375v18.812c0,2.972,2.407,5.376,5.375,5.376h21.271L3.155,291.6
			c-0.748,1.659-0.596,3.586,0.394,5.119c0.992,1.526,2.688,2.451,4.509,2.451h29.565c2.118,0,4.037-1.239,4.908-3.182
			l25.451-56.841h189.238l25.455,56.841c0.865,1.933,2.787,3.182,4.908,3.182h29.563c0.033-0.005,0.075-0.005,0.106,0
			c2.971,0,5.376-2.404,5.376-5.376C322.63,292.649,322.271,291.579,321.653,290.701z"/>
	</g>
</g>
<g>
</g>
<g>
</g>
<g>
</g>
<g>
</g>
<g>
</g>
<g>
</g>
<g>
</g>
<g>
</g>
<g>
</g>
<g>
</g>
<g>
</g>
<g>
</g>
<g>
</g>
<g>
</g>
<g>
</g>
</svg>
